<svg width="20" height="18" viewBox="0 0 20 18" fill="none" xmlns="http://www.w3.org/2000/svg">
<path d="M10 17.7819L9.15806 17.0214C7.34472 15.3647 5.84472 13.9467 4.65806 12.7672C3.47157 11.5876 2.535 10.5473 1.84833 9.64639C1.16167 8.74546 0.681944 7.93028 0.409167 7.20083C0.136389 6.47157 0 5.73796 0 5C0 3.58685 0.480093 2.40028 1.44028 1.44028C2.40028 0.480092 3.58685 0 5 0C5.97722 0 6.89389 0.25 7.75 0.75C8.60611 1.25 9.35611 1.97722 10 2.93167C10.6439 1.97722 11.3939 1.25 12.25 0.75C13.1061 0.25 14.0228 0 15 0C16.4131 0 17.5997 0.480092 18.5597 1.44028C19.5199 2.40028 20 3.58685 20 5C20 5.73796 19.8636 6.47157 19.5908 7.20083C19.3181 7.93028 18.8383 8.74546 18.1517 9.64639C17.465 10.5473 16.5319 11.5876 15.3525 12.7672C14.1731 13.9467 12.6695 15.3647 10.8419 17.0214L10 17.7819ZM10 16.2778C11.7778 14.6709 13.2407 13.2945 14.3889 12.1486C15.537 11.0025 16.4444 10.0081 17.1111 9.16556C17.7778 8.32296 18.2407 7.57657 18.5 6.92639C18.7593 6.27602 18.8889 5.63389 18.8889 5C18.8889 3.88889 18.5185 2.96296 17.7778 2.22222C17.037 1.48148 16.1111 1.11111 15 1.11111C14.1154 1.11111 13.2992 1.36361 12.5514 1.86861C11.8034 2.37361 11.1339 3.13389 10.5428 4.14944H9.45722C8.85185 3.11963 8.1788 2.35574 7.43806 1.85778C6.69731 1.36 5.88463 1.11111 5 1.11111C3.90315 1.11111 2.98074 1.48148 2.23278 2.22222C1.485 2.96296 1.11111 3.88889 1.11111 5C1.11111 5.63389 1.24074 6.27602 1.5 6.92639C1.75926 7.57657 2.22222 8.32296 2.88889 9.16556C3.55556 10.0081 4.46296 10.9989 5.61111 12.1378C6.75926 13.2767 8.22222 14.6567 10 16.2778Z" fill="#272727"/>
</svg>
