<svg width="54" height="15" viewBox="0 0 54 15" fill="none" xmlns="http://www.w3.org/2000/svg">
<g clip-path="url(#clip0_0_64)">
<path fill-rule="evenodd" clip-rule="evenodd" d="M0.0158397 0.0225317C1.6632 0.0225317 3.32639 0.0225317 4.97375 0.0225317C5.74991 0.0069302 6.52607 0.412571 6.95375 1.05223C7.34975 1.59829 7.4923 2.26915 7.69822 2.90881C8.30014 4.89021 8.88622 6.88721 9.48814 8.8686C9.50398 9.05582 9.77326 9.11823 9.82078 8.93101C10.4385 6.91841 11.0246 4.92141 11.6265 2.90881C11.8325 2.20675 12.0225 1.45788 12.4977 0.865018C12.8145 0.490581 13.2422 0.225352 13.7174 0.100539C14.1293 -0.00867132 14.5411 0.0381333 14.9688 0.0225317C16.426 0.0225317 17.8675 0.00693116 19.3248 0.0381342C19.3089 5.03062 19.3248 10.0075 19.3089 15C17.7408 14.9844 16.1726 15.0156 14.6045 14.9844C14.6045 12.0513 14.6045 9.13383 14.6045 6.20074C14.5886 5.93551 14.1609 5.96672 14.1293 6.20074C13.1947 9.11823 12.2601 12.0513 11.3256 14.9688C10.2168 15 9.10798 14.9688 7.99919 14.9844C7.06463 12.0669 6.14591 9.13383 5.19551 6.21634C5.14799 5.98232 4.86287 5.96671 4.70447 6.10713C4.70447 9.07142 4.70447 12.0201 4.70447 14.9844C3.13631 15 1.56816 14.9844 0 15C0.01584 10.0075 0.0158397 5.01502 0.0158397 0.0225317ZM21.479 0.0225317C23.0472 -0.00867133 24.6153 0.0381371 26.1835 0.00693401C26.2151 2.97122 26.1835 5.93551 26.1993 8.8842C26.326 9.00901 26.5795 9.04022 26.6587 8.8374C27.7041 6.68439 28.7337 4.53137 29.7791 2.36276C30.1118 1.6919 30.3811 0.974226 30.9196 0.428172C31.1572 0.209751 31.4582 -0.00866752 31.8067 0.00693401C33.4065 0.00693401 35.0063 -0.00866752 36.6062 0.00693401C36.6062 4.99942 36.6062 9.97631 36.6062 14.9688C35.038 14.9844 33.4699 14.9844 31.9017 14.9688C31.9017 12.0201 31.9017 9.05582 31.9017 6.10713C31.9017 5.8575 31.4582 5.87311 31.4107 6.10713C30.4286 8.24454 29.4465 10.382 28.4644 12.5194C28.1635 13.1746 27.8783 13.8299 27.419 14.4071C27.1655 14.7192 26.8012 15 26.3735 14.9844C24.742 14.9844 23.1105 14.9844 21.479 14.9844C21.479 10.0075 21.479 5.01502 21.479 0.0225317ZM38.903 6.85601C43.8292 6.8248 48.7554 6.856 53.6817 6.8404C53.5233 7.51127 53.0797 8.08853 52.6045 8.58778C51.6858 9.57067 50.3711 10.1635 49.0089 10.1947C47.2031 10.2103 45.4132 10.1947 43.6074 10.1947C43.5916 11.7861 43.6074 13.3774 43.6074 14.9844C42.0393 14.9844 40.4711 14.9844 38.903 14.9844C38.903 12.2853 38.9188 9.57067 38.903 6.85601Z" fill="black"/>
<path fill-rule="evenodd" clip-rule="evenodd" d="M38.3008 0.0234375C41.9757 0.0234375 45.6664 0.0234375 49.3413 0.0234375C50.3075 0.0858437 51.2421 0.475883 52.0024 1.05314C53.1112 1.91123 53.8557 3.20616 53.9824 4.59469C54.0141 5.09394 53.9982 5.59319 53.919 6.09244C51.6698 6.10804 49.4047 6.09244 47.1554 6.09244C46.3792 6.09244 45.6031 6.12364 44.8269 6.01443C43.1003 5.79601 41.3896 5.09394 40.1541 3.84582C39.1404 2.83172 38.5068 1.44318 38.3008 0.0234375Z" fill="black"/>
</g>
<defs>
<clipPath id="clip0_0_64">
<rect width="54" height="15" fill="white"/>
</clipPath>
</defs>
</svg>
