<svg width="18" height="18" viewBox="0 0 18 18" fill="none" xmlns="http://www.w3.org/2000/svg">
<path d="M17.2223 17.9999L10.3435 11.121C9.79422 11.5887 9.16253 11.9507 8.44844 12.207C7.73436 12.4633 7.0168 12.5915 6.29575 12.5915C4.53618 12.5915 3.04694 11.9824 1.82806 10.7643C0.609352 9.54612 0 8.0578 0 6.29932C0 4.54066 0.609077 3.05106 1.82723 1.83053C3.04539 0.610175 4.53371 0 6.29218 0C8.05085 0 9.54044 0.609352 10.761 1.82806C11.9813 3.04694 12.5915 4.53618 12.5915 6.29575C12.5915 7.05909 12.4563 7.7978 12.1859 8.51189C11.9154 9.22597 11.5605 9.83651 11.121 10.3435L17.9999 17.2226L17.2223 17.9999ZM6.29575 11.4929C7.7534 11.4929 8.98401 10.9911 9.98757 9.98757C10.9911 8.98419 11.4929 7.75358 11.4929 6.29575C11.4929 4.83792 10.9911 3.60732 9.98757 2.60394C8.98401 1.60037 7.7534 1.09859 6.29575 1.09859C4.83792 1.09859 3.60732 1.60037 2.60394 2.60394C1.60037 3.60732 1.09859 4.83792 1.09859 6.29575C1.09859 7.75358 1.60037 8.98419 2.60394 9.98757C3.60732 10.9911 4.83792 11.4929 6.29575 11.4929Z" fill="#272727"/>
</svg>
