<svg width="16" height="20" viewBox="0 0 16 20" fill="none" xmlns="http://www.w3.org/2000/svg">
<path d="M1.795 20C1.28352 20 0.856481 19.8287 0.513889 19.4861C0.171296 19.1435 0 18.7165 0 18.205V6.23944C0 5.72796 0.171296 5.30093 0.513889 4.95833C0.856481 4.61574 1.28352 4.44444 1.795 4.44444H3.88889V3.88889C3.88889 2.80907 4.26713 1.89102 5.02361 1.13472C5.77991 0.37824 6.69796 0 7.77778 0C8.85759 0 9.77565 0.37824 10.5319 1.13472C11.2884 1.89102 11.6667 2.80907 11.6667 3.88889V4.44444H13.7606C14.272 4.44444 14.6991 4.61574 15.0417 4.95833C15.3843 5.30093 15.5556 5.72796 15.5556 6.23944V18.205C15.5556 18.7165 15.3843 19.1435 15.0417 19.4861C14.6991 19.8287 14.272 20 13.7606 20H1.795ZM1.795 18.8889H13.7606C13.9317 18.8889 14.0884 18.8177 14.2308 18.6753C14.3732 18.5329 14.4444 18.3761 14.4444 18.205V6.23944C14.4444 6.06833 14.3732 5.91157 14.2308 5.76917C14.0884 5.62676 13.9317 5.55556 13.7606 5.55556H11.6667V8.33333C11.6667 8.49148 11.6136 8.62361 11.5075 8.72972C11.4014 8.83583 11.2693 8.88889 11.1111 8.88889C10.953 8.88889 10.8208 8.83583 10.7147 8.72972C10.6086 8.62361 10.5556 8.49148 10.5556 8.33333V5.55556H5V8.33333C5 8.49148 4.94694 8.62361 4.84083 8.72972C4.73472 8.83583 4.60259 8.88889 4.44444 8.88889C4.2863 8.88889 4.15417 8.83583 4.04806 8.72972C3.94194 8.62361 3.88889 8.49148 3.88889 8.33333V5.55556H1.795C1.62389 5.55556 1.46713 5.62676 1.32472 5.76917C1.18231 5.91157 1.11111 6.06833 1.11111 6.23944V18.205C1.11111 18.3761 1.18231 18.5329 1.32472 18.6753C1.46713 18.8177 1.62389 18.8889 1.795 18.8889ZM5 4.44444H10.5556V3.88889C10.5556 3.10685 10.2881 2.44833 9.75333 1.91333C9.21833 1.37852 8.55981 1.11111 7.77778 1.11111C6.99574 1.11111 6.33722 1.37852 5.80222 1.91333C5.26741 2.44833 5 3.10685 5 3.88889V4.44444Z" fill="#272727"/>
</svg>
