<svg width="24" height="22" viewBox="0 0 24 22" fill="none" xmlns="http://www.w3.org/2000/svg">
<path d="M12 21.3333L10.26 19.822C8.24 18.0587 6.57 16.5377 5.25 15.2589C3.93 13.98 2.88 12.832 2.1 11.8147C1.32 10.7975 0.775 9.86255 0.465 9.00999C0.155 8.15743 0 7.2855 0 6.39419C0 4.57281 0.63 3.05177 1.89 1.83106C3.15 0.610354 4.72 0 6.6 0C7.64 0 8.63 0.21314 9.57 0.639419C10.51 1.0657 11.32 1.66636 12 2.44142C12.68 1.66636 13.49 1.0657 14.43 0.639419C15.37 0.21314 16.36 0 17.4 0C19.28 0 20.85 0.610354 22.11 1.83106C23.37 3.05177 24 4.57281 24 6.39419C24 7.2855 23.845 8.15743 23.535 9.00999C23.225 9.86255 22.68 10.7975 21.9 11.8147C21.12 12.832 20.07 13.98 18.75 15.2589C17.43 16.5377 15.76 18.0587 13.74 19.822L12 21.3333Z" fill="#91BE17"/>
</svg>
