<svg width="37" height="23" viewBox="0 0 37 23" fill="none" xmlns="http://www.w3.org/2000/svg">
<g clip-path="url(#clip0_0_73)">
<path d="M36.9984 11.087C36.9984 17.1997 32.0482 22.1623 25.923 22.1623C19.8104 22.1623 14.8477 17.2122 14.8477 11.087C14.8477 4.97435 19.7979 0.0117188 25.923 0.0117188C32.0357 0.0117188 36.9984 4.96185 36.9984 11.087Z" fill="#959595"/>
<path d="M11.0003 0.0124992C4.92512 0.0500003 0 5.00014 0 11.0878C0 17.2005 4.96262 22.1631 11.0753 22.1631C13.9503 22.1631 16.5629 21.0756 18.5255 19.2755C18.9255 18.913 19.3005 18.513 19.6505 18.088H17.3754C17.0754 17.7255 16.8004 17.338 16.5504 16.9505H20.463C20.7005 16.5755 20.913 16.1755 21.113 15.7629H15.9129C15.7379 15.3879 15.5754 14.9879 15.4504 14.6004H21.5755C21.9505 13.5004 22.1505 12.3128 22.1505 11.0878C22.1505 10.2753 22.063 9.47527 21.9005 8.71275H15.1254C15.2129 8.32524 15.3129 7.92523 15.4379 7.55022H21.5755C21.438 7.1377 21.2755 6.75019 21.1005 6.36268H15.9129C16.1004 5.96267 16.3129 5.57516 16.5504 5.20015H20.463C20.2005 4.78764 19.913 4.38762 19.6005 4.01261H17.4254C17.7629 3.6126 18.1379 3.23759 18.538 2.88758C16.5754 1.10003 13.9503 0 11.0878 0C11.0378 0.0125004 11.0253 0.0124992 11.0003 0.0124992Z" fill="#959595"/>
<path d="M35.8898 16.875C35.9523 16.875 36.0148 16.8875 36.0648 16.925C36.1273 16.95 36.1648 17 36.2023 17.0625C36.2398 17.125 36.2523 17.175 36.2523 17.2375C36.2523 17.3 36.2398 17.3625 36.2023 17.4125C36.1648 17.475 36.1273 17.5125 36.0648 17.55C36.0023 17.575 35.9523 17.6 35.8898 17.6C35.8273 17.6 35.7648 17.5875 35.7148 17.55C35.6523 17.5125 35.6148 17.475 35.5773 17.4125C35.5398 17.35 35.5273 17.3 35.5273 17.2375C35.5273 17.175 35.5398 17.1125 35.5773 17.0625C35.6148 17 35.6523 16.9625 35.7148 16.925C35.7773 16.8875 35.8273 16.875 35.8898 16.875ZM35.8898 16.9375C35.8398 16.9375 35.7898 16.95 35.7398 16.975C35.6898 17 35.6523 17.0375 35.6273 17.0875C35.6023 17.1375 35.5898 17.1875 35.5898 17.2375C35.5898 17.2875 35.6023 17.3375 35.6273 17.3875C35.6523 17.4375 35.6898 17.475 35.7398 17.5C35.7898 17.525 35.8398 17.5375 35.8898 17.5375C35.9398 17.5375 35.9898 17.525 36.0398 17.5C36.0898 17.475 36.1273 17.4375 36.1523 17.3875C36.1773 17.3375 36.1898 17.2875 36.1898 17.2375C36.1898 17.1875 36.1773 17.1375 36.1523 17.0875C36.1273 17.0375 36.0898 17 36.0398 16.975C35.9898 16.95 35.9398 16.9375 35.8898 16.9375ZM35.7398 17.4375V17.05H35.8773C35.9273 17.05 35.9523 17.05 35.9773 17.0625C36.0023 17.075 36.0148 17.0875 36.0273 17.1C36.0398 17.1125 36.0398 17.1375 36.0398 17.1625C36.0398 17.1875 36.0273 17.2125 36.0148 17.2375C35.9898 17.2625 35.9648 17.275 35.9398 17.275C35.9523 17.275 35.9648 17.2875 35.9773 17.3C35.9898 17.3125 36.0148 17.3375 36.0398 17.375L36.0898 17.45H35.9773L35.9398 17.3875C35.9148 17.3375 35.8898 17.3125 35.8773 17.3C35.8648 17.2875 35.8523 17.2875 35.8273 17.2875H35.7898V17.45L35.7398 17.4375ZM35.8023 17.2125H35.8773C35.9148 17.2125 35.9398 17.2125 35.9523 17.2C35.9648 17.1875 35.9773 17.175 35.9773 17.1625C35.9773 17.15 35.9773 17.1375 35.9648 17.1375C35.9523 17.125 35.9523 17.125 35.9398 17.1125C35.9273 17.1125 35.9023 17.1 35.8773 17.1H35.8023V17.2125Z" fill="white"/>
<path d="M14.7423 14.261L14.8923 13.261C14.8173 13.261 14.6923 13.2985 14.5923 13.2985C14.1798 13.2985 14.1298 13.0735 14.1673 12.9235L14.5673 10.911H15.1923L15.3173 9.77346H14.7298L14.8548 9.08594H13.6298C13.6048 9.11094 12.9297 12.961 12.9297 13.436C12.9297 14.136 13.3172 14.436 13.8673 14.436C14.2923 14.411 14.6173 14.2985 14.7423 14.261Z" fill="white"/>
<path d="M15.1172 12.3493C15.1172 14.0119 16.2173 14.4119 17.1548 14.4119C18.0174 14.4119 18.4674 14.2119 18.4674 14.2119L18.6799 13.0743C18.6799 13.0743 17.9549 13.3743 17.3549 13.3743C16.0923 13.3743 16.3048 12.4243 16.3048 12.4243L18.7424 12.4368C18.7424 12.4368 18.8924 11.6743 18.8924 11.3618C18.8924 10.5868 18.4674 9.63672 17.1798 9.63672C15.9923 9.63672 15.1172 10.9118 15.1172 12.3493ZM17.1798 10.6868C17.8424 10.6868 17.7174 11.4368 17.7174 11.4993H16.4048C16.4173 11.4243 16.5423 10.6868 17.1798 10.6868Z" fill="white"/>
<path d="M24.6548 14.2621L24.8673 12.9745C24.8673 12.9745 24.2923 13.262 23.8923 13.262C23.0548 13.262 22.7173 12.6245 22.7173 11.937C22.7173 10.5494 23.4423 9.77436 24.2423 9.77436C24.8423 9.77436 25.3298 10.1119 25.3298 10.1119L25.5173 8.86183C25.5173 8.86183 24.9423 8.44931 24.3298 8.44931C22.4923 8.43681 21.4297 9.72436 21.4297 11.9495C21.4297 13.4245 22.2048 14.4246 23.6173 14.4246C24.0173 14.4246 24.6548 14.2621 24.6548 14.2621Z" fill="white"/>
<path d="M8.25787 9.64844C7.44535 9.64844 6.83283 9.91095 6.83283 9.91095L6.65782 10.9234C6.65782 10.9234 7.17034 10.7109 7.94536 10.7109C8.38287 10.7109 8.70788 10.7609 8.70788 11.1234C8.70788 11.3359 8.67038 11.4235 8.67038 11.4235C8.67038 11.4235 8.32037 11.3985 8.15787 11.3985C7.00783 11.3985 6.07031 11.836 6.07031 13.1485C6.07031 14.186 6.77033 14.4235 7.20784 14.4235C8.04536 14.4235 8.37037 13.8985 8.38287 13.8985L8.37037 14.336H9.4079L9.87041 11.0859C9.88291 9.69844 8.67038 9.64844 8.25787 9.64844ZM8.43287 12.286C8.45787 12.486 8.38287 13.4235 7.67035 13.4235C7.30784 13.4235 7.20784 13.1485 7.20784 12.9735C7.20784 12.6485 7.38284 12.261 8.24537 12.261C8.45787 12.261 8.40787 12.286 8.43287 12.286Z" fill="white"/>
<path d="M10.9812 14.3892C11.2437 14.3892 12.7688 14.4517 12.7688 12.8892C12.7688 11.4266 11.3687 11.7141 11.3687 11.1266C11.3687 10.8391 11.5938 10.7391 12.0188 10.7391C12.1813 10.7391 12.8188 10.7891 12.8188 10.7891L12.9689 9.75156C12.9689 9.75156 12.5563 9.66406 11.8813 9.66406C11.0062 9.66406 10.1187 10.0141 10.1187 11.2016C10.1187 12.5517 11.5939 12.4142 11.5939 12.9892C11.5939 13.3642 11.1812 13.4017 10.8687 13.4017C10.3187 13.4017 9.81876 13.2142 9.81876 13.2267L9.65625 14.2517C9.68125 14.2517 9.99376 14.3892 10.9812 14.3892Z" fill="white"/>
<path d="M34.3836 8.71094L34.1711 10.2984C34.1711 10.2984 33.7211 9.68597 33.0336 9.68597C31.7211 9.68597 31.0586 10.986 31.0586 12.486C31.0586 13.4485 31.5336 14.3986 32.5211 14.3986C33.2336 14.3986 33.6211 13.911 33.6211 13.911L33.5711 14.3361H34.7211L35.6211 8.72344L34.3836 8.71094ZM33.8711 11.7985C33.8711 12.4235 33.5586 13.2485 32.9211 13.2485C32.4961 13.2485 32.2961 12.886 32.2961 12.336C32.2961 11.4235 32.7086 10.8235 33.2211 10.8235C33.6586 10.811 33.8711 11.111 33.8711 11.7985Z" fill="white"/>
<path d="M1.87113 14.3243L2.58365 10.0867L2.68365 14.3243H3.49618L5.00872 10.0867L4.3337 14.3243H5.54624L6.47127 8.71172L4.55871 8.69922L3.42118 12.1368L3.38367 8.71172H1.62112L0.683594 14.3243H1.87113Z" fill="white"/>
<path d="M20.0461 14.3393C20.3836 12.3892 20.5086 10.8516 21.5087 11.1641C21.6462 10.4141 21.9962 9.75158 22.1462 9.42657C22.1462 9.42657 22.0962 9.35156 21.7837 9.35156C21.2587 9.35156 20.5461 10.4266 20.5461 10.4266L20.6461 9.76408H19.5461L18.8086 14.3393H20.0461Z" fill="white"/>
<path d="M27.1211 9.64844C26.3086 9.64844 25.6961 9.91095 25.6961 9.91095L25.5211 10.9235C25.5211 10.9235 26.0336 10.711 26.8086 10.711C27.2461 10.711 27.5711 10.761 27.5711 11.1235C27.5711 11.336 27.5336 11.4235 27.5336 11.4235C27.5336 11.4235 27.1836 11.3985 27.0211 11.3985C25.8711 11.3985 24.9336 11.836 24.9336 13.1486C24.9336 14.1861 25.6336 14.4236 26.0711 14.4236C26.9086 14.4236 27.2336 13.8986 27.2461 13.8986L27.2336 14.3361H28.2711L28.7336 11.086C28.7461 9.69844 27.5461 9.64844 27.1211 9.64844ZM27.3086 12.286C27.3336 12.486 27.2586 13.4236 26.5461 13.4236C26.1836 13.4236 26.0836 13.1486 26.0836 12.9736C26.0836 12.6485 26.2586 12.261 27.1211 12.261C27.3211 12.261 27.2711 12.286 27.3086 12.286Z" fill="white"/>
<path d="M29.9359 14.3361C30.1234 12.8986 30.4734 10.886 31.3984 11.161C31.5359 10.4109 31.3984 10.4109 31.0984 10.4109C30.5734 10.4109 30.4484 10.4359 30.4484 10.4359L30.5484 9.77344H29.4484L28.7109 14.3486H29.9359V14.3361Z" fill="white"/>
<path d="M15.0538 13.9142L15.2038 12.9141C15.1288 12.9141 15.0038 12.9516 14.9038 12.9516C14.4913 12.9516 14.4538 12.7391 14.4788 12.5766L14.8163 10.5266H15.4413L15.5913 9.41408H15.0038L15.1288 8.72656H13.9538C13.9288 8.75156 13.2539 12.6016 13.2539 13.0766C13.2539 13.7767 13.6413 14.0767 14.1913 14.0767C14.6038 14.0642 14.9413 13.9392 15.0538 13.9142Z" fill="black"/>
<path d="M15.4219 12.0024C15.4219 13.6649 16.522 14.065 17.4595 14.065C18.322 14.065 18.7095 13.8775 18.7095 13.8775L18.922 12.7399C18.922 12.7399 18.2595 13.0274 17.672 13.0274C16.4095 13.0274 16.622 12.0774 16.622 12.0774H19.022C19.022 12.0774 19.172 11.3149 19.172 11.0024C19.172 10.2274 18.7845 9.27734 17.4845 9.27734C16.297 9.27734 15.4219 10.5524 15.4219 12.0024ZM17.4845 10.3274C18.147 10.3274 18.022 11.0774 18.022 11.1399H16.722C16.722 11.0649 16.847 10.3274 17.4845 10.3274Z" fill="black"/>
<path d="M24.9626 13.9141L25.1751 12.6266C25.1751 12.6266 24.6001 12.9141 24.2001 12.9141C23.3625 12.9141 23.025 12.2766 23.025 11.5891C23.025 10.2015 23.7501 9.42657 24.5501 9.42657C25.1501 9.42657 25.6376 9.76407 25.6376 9.76407L25.8251 8.51406C25.8251 8.51406 25.1126 8.22656 24.5001 8.22656C23.1375 8.22656 21.8125 9.40157 21.8125 11.6266C21.8125 13.1016 22.525 14.0641 23.9376 14.0641C24.3251 14.0641 24.9626 13.9141 24.9626 13.9141Z" fill="black"/>
<path d="M8.56256 9.28906C7.75004 9.28906 7.13752 9.55156 7.13752 9.55156L6.96252 10.5641C6.96252 10.5641 7.47503 10.3516 8.25005 10.3516C8.68756 10.3516 9.01257 10.4016 9.01257 10.7641C9.01257 10.9766 8.97507 11.0641 8.97507 11.0641C8.97507 11.0641 8.62506 11.0391 8.46255 11.0391C7.43753 11.0391 6.375 11.4766 6.375 12.7891C6.375 13.8266 7.07502 14.0641 7.51253 14.0641C8.35005 14.0641 8.70006 13.5266 8.72506 13.5266L8.68756 13.9766H9.72509L10.1876 10.7266C10.1876 9.33906 8.98757 9.28906 8.56256 9.28906ZM8.81256 11.9391C8.83756 12.1391 8.68756 13.0641 7.97504 13.0641C7.61253 13.0641 7.51253 12.7891 7.51253 12.6141C7.51253 12.2891 7.68754 11.9016 8.55006 11.9016C8.76256 11.9141 8.78756 11.9391 8.81256 11.9391Z" fill="black"/>
<path d="M11.286 14.0259C11.5485 14.0259 13.0736 14.0884 13.0736 12.5259C13.0736 11.0634 11.6735 11.3509 11.6735 10.7634C11.6735 10.4759 11.8985 10.3758 12.3235 10.3758C12.486 10.3758 13.1236 10.4259 13.1236 10.4259L13.2736 9.38828C13.2736 9.38828 12.8611 9.30078 12.186 9.30078C11.311 9.30078 10.4234 9.65078 10.4234 10.8384C10.4234 12.1884 11.8985 12.0509 11.8985 12.6259C11.8985 13.0009 11.486 13.0384 11.1735 13.0384C10.6234 13.0384 10.1234 12.8509 10.1234 12.8634L9.96094 13.8884C9.98594 13.8884 10.2984 14.0259 11.286 14.0259Z" fill="black"/>
<path d="M34.722 8.36328L34.472 9.93835C34.472 9.93835 34.022 9.32582 33.3345 9.32582C32.2595 9.32582 31.3594 10.6259 31.3594 12.1259C31.3594 13.0885 31.8344 14.0385 32.822 14.0385C33.5345 14.0385 33.922 13.551 33.922 13.551L33.872 13.976H35.022L35.922 8.36328H34.722ZM34.172 11.4384C34.172 12.0634 33.8595 12.8885 33.222 12.8885C32.797 12.8885 32.597 12.526 32.597 11.9759C32.597 11.0634 33.0095 10.4634 33.522 10.4634C33.9595 10.4634 34.172 10.7509 34.172 11.4384Z" fill="black"/>
<path d="M2.17347 13.976L2.88598 9.73834L2.98598 13.976H3.7985L5.31103 9.73834L4.63602 13.976H5.84855L6.77357 8.36328H4.91103L3.7485 11.8134L3.686 8.36328H1.96096L1.02344 13.976H2.17347Z" fill="black"/>
<path d="M20.3501 13.9768C20.6876 12.0267 20.7626 10.4391 21.5751 10.7266C21.7126 9.97659 21.8626 9.67658 22.0126 9.36406C22.0126 9.36406 21.9376 9.35156 21.7876 9.35156C21.2626 9.35156 20.8626 10.0766 20.8626 10.0766L20.9626 9.41406H19.8625L19.125 13.9893H20.3501V13.9768Z" fill="black"/>
<path d="M27.6719 9.28906C26.8594 9.28906 26.2469 9.55156 26.2469 9.55156L26.0719 10.564C26.0719 10.564 26.5844 10.3515 27.3594 10.3515C27.7969 10.3515 28.1219 10.4015 28.1219 10.764C28.1219 10.9765 28.0844 11.064 28.0844 11.064C28.0844 11.064 27.7344 11.039 27.5719 11.039C26.5469 11.039 25.4844 11.4765 25.4844 12.789C25.4844 13.8265 26.1844 14.064 26.6219 14.064C27.4594 14.064 27.8094 13.5265 27.8344 13.5265L27.7969 13.9765H28.8345L29.297 10.7265C29.297 9.33906 28.0969 9.28906 27.6719 9.28906ZM27.9344 11.939C27.9594 12.139 27.8094 13.064 27.0969 13.064C26.7344 13.064 26.6344 12.789 26.6344 12.614C26.6344 12.289 26.8094 11.9015 27.6719 11.9015C27.8719 11.914 27.8969 11.939 27.9344 11.939Z" fill="black"/>
<path d="M30.2524 13.9768C30.5899 12.0267 30.6649 10.4391 31.4774 10.7266C31.6149 9.97659 31.7649 9.67658 31.9149 9.36406C31.9149 9.36406 31.8399 9.35156 31.6899 9.35156C31.1649 9.35156 30.7649 10.0766 30.7649 10.0766L30.8649 9.41406H29.7648L29.0273 13.9893H30.2524V13.9768Z" fill="black"/>
<path d="M35.8898 13.2773C35.9523 13.2773 36.0148 13.2898 36.0648 13.3273C36.1273 13.3523 36.1648 13.4023 36.2023 13.4648C36.2398 13.5273 36.2523 13.5773 36.2523 13.6398C36.2523 13.7023 36.2398 13.7648 36.2023 13.8148C36.1648 13.8773 36.1273 13.9148 36.0648 13.9523C36.0023 13.9898 35.9523 14.0023 35.8898 14.0023C35.8273 14.0023 35.7648 13.9898 35.7148 13.9523C35.6523 13.9148 35.6148 13.8773 35.5773 13.8148C35.5398 13.7523 35.5273 13.7023 35.5273 13.6398C35.5273 13.5773 35.5398 13.5148 35.5773 13.4648C35.6148 13.4023 35.6523 13.3648 35.7148 13.3273C35.7648 13.2898 35.8273 13.2773 35.8898 13.2773ZM35.8898 13.3273C35.8398 13.3273 35.7898 13.3398 35.7398 13.3648C35.6898 13.3898 35.6523 13.4273 35.6273 13.4773C35.6023 13.5273 35.5898 13.5773 35.5898 13.6273C35.5898 13.6773 35.6023 13.7273 35.6273 13.7773C35.6523 13.8273 35.6898 13.8648 35.7398 13.8898C35.7898 13.9148 35.8398 13.9273 35.8898 13.9273C35.9398 13.9273 35.9898 13.9148 36.0398 13.8898C36.0898 13.8648 36.1273 13.8273 36.1523 13.7773C36.1773 13.7273 36.1898 13.6773 36.1898 13.6273C36.1898 13.5773 36.1773 13.5273 36.1523 13.4773C36.1273 13.4273 36.0898 13.3898 36.0398 13.3648C35.9898 13.3523 35.9398 13.3273 35.8898 13.3273ZM35.7273 13.8273V13.4398H35.8648C35.9148 13.4398 35.9398 13.4398 35.9648 13.4523C35.9898 13.4648 36.0023 13.4773 36.0148 13.4898C36.0273 13.5023 36.0273 13.5273 36.0273 13.5523C36.0273 13.5773 36.0148 13.6023 36.0023 13.6273C35.9773 13.6523 35.9523 13.6648 35.9273 13.6648C35.9398 13.6648 35.9523 13.6773 35.9648 13.6898C35.9773 13.7023 36.0023 13.7273 36.0273 13.7648L36.0773 13.8398H35.9773L35.9398 13.7773C35.9148 13.7273 35.8898 13.7023 35.8773 13.6898C35.8648 13.6773 35.8523 13.6773 35.8273 13.6773H35.7898V13.8398L35.7273 13.8273ZM35.7898 13.6148H35.8648C35.9023 13.6148 35.9273 13.6148 35.9398 13.6023C35.9523 13.5898 35.9648 13.5773 35.9648 13.5648C35.9648 13.5523 35.9648 13.5398 35.9523 13.5398C35.9398 13.5273 35.9398 13.5273 35.9273 13.5148C35.9148 13.5148 35.8898 13.5023 35.8648 13.5023H35.7898V13.6148Z" fill="#785E4D"/>
</g>
<defs>
<clipPath id="clip0_0_73">
<rect width="37" height="23" fill="white"/>
</clipPath>
</defs>
</svg>
