<svg width="20" height="18" viewBox="0 0 20 18" fill="none" xmlns="http://www.w3.org/2000/svg">
<path d="M10 7.83871C8.89179 7.83871 7.94316 7.455 7.15411 6.68758C6.3648 5.91992 5.97015 4.99718 5.97015 3.91935C5.97015 2.84153 6.3648 1.91879 7.15411 1.15113C7.94316 0.383709 8.89179 0 10 0C11.1082 0 12.057 0.383709 12.8463 1.15113C13.6353 1.91879 14.0299 2.84153 14.0299 3.91935C14.0299 4.99718 13.6353 5.91992 12.8463 6.68758C12.057 7.455 11.1082 7.83871 10 7.83871ZM0 18V16.1129C0 15.5806 0.16791 15.0786 0.503731 14.6069C0.839552 14.1351 1.29353 13.7661 1.86567 13.5C3.23383 12.871 4.59577 12.3992 5.95149 12.0847C7.30721 11.7702 8.65672 11.6129 10 11.6129C11.3433 11.6129 12.6928 11.7702 14.0485 12.0847C15.4042 12.3992 16.7662 12.871 18.1343 13.5C18.7065 13.7661 19.1604 14.1351 19.4963 14.6069C19.8321 15.0786 20 15.5806 20 16.1129V18H0ZM1.04478 16.9839H18.9552V16.1129C18.9552 15.7742 18.8371 15.4536 18.6007 15.1512C18.3644 14.8488 18.0348 14.5887 17.6119 14.371C16.4179 13.8145 15.178 13.3851 13.8922 13.0827C12.6066 12.7802 11.3092 12.629 10 12.629C8.6908 12.629 7.39341 12.7802 6.10784 13.0827C4.82202 13.3851 3.58209 13.8145 2.38806 14.371C1.96517 14.5887 1.63557 14.8488 1.39925 15.1512C1.16294 15.4536 1.04478 15.7742 1.04478 16.1129V16.9839ZM10 6.82258C10.8209 6.82258 11.5236 6.53831 12.1082 5.96976C12.6928 5.40121 12.9851 4.71774 12.9851 3.91935C12.9851 3.12097 12.6928 2.4375 12.1082 1.86895C11.5236 1.3004 10.8209 1.01613 10 1.01613C9.1791 1.01613 8.47637 1.3004 7.89179 1.86895C7.30721 2.4375 7.01493 3.12097 7.01493 3.91935C7.01493 4.71774 7.30721 5.40121 7.89179 5.96976C8.47637 6.53831 9.1791 6.82258 10 6.82258Z" fill="#272727"/>
</svg>
