<svg width="49" height="15" viewBox="0 0 49 15" fill="none" xmlns="http://www.w3.org/2000/svg">
<g clip-path="url(#clip0_0_67)">
<path d="M17.2617 14.786L19.7391 0.253906H23.7164L21.2256 14.786H17.2617Z" fill="black"/>
<path d="M35.6198 0.614974C34.8297 0.320856 33.5977 0 32.0577 0C28.134 0 25.3754 1.96524 25.3486 4.79946C25.3218 6.88503 27.3171 8.04813 28.8304 8.74331C30.3704 9.45187 30.8927 9.90641 30.8927 10.5481C30.8793 11.5241 29.6606 11.9652 28.5224 11.9652C26.9288 11.9652 26.0851 11.7513 24.7862 11.2032L24.2773 10.9759L23.7148 14.2246C24.6389 14.6257 26.353 14.9866 28.134 15C32.2988 15 35.0172 13.0481 35.044 10.0401C35.0574 8.38235 33.9995 7.12567 31.7095 6.09626C30.3168 5.42781 29.4732 4.97326 29.4865 4.29144C29.4865 3.68984 30.2097 3.03476 31.7631 3.03476C33.0621 3.00802 33.9995 3.30214 34.736 3.59626L35.0976 3.77005L35.6198 0.614974Z" fill="black"/>
<path d="M45.8002 0.265625H42.7335C41.7827 0.265625 41.073 0.519636 40.6579 1.46884L34.7656 14.7843H38.9304C38.9304 14.7843 39.6133 12.9928 39.7606 12.6051C40.2159 12.6051 44.2602 12.6051 44.836 12.6051C44.9565 13.1132 45.3181 14.7843 45.3181 14.7843H49.0007L45.8002 0.265625ZM40.8989 9.63728C41.2337 8.79504 42.4791 5.57311 42.4791 5.57311C42.4523 5.61322 42.8005 4.73087 43.0014 4.18274L43.2692 5.43942C43.2692 5.43942 44.0325 8.91536 44.1932 9.63728H40.8989Z" fill="black"/>
<path d="M13.9415 0.265625L10.058 10.172L9.64283 8.15332C8.91969 5.82712 6.66993 3.31375 4.15234 2.05707L7.70107 14.7709H11.906L18.133 0.265625H13.9415Z" fill="black"/>
<path d="M6.44128 0.253906H0.0535649L0 0.561395C4.98162 1.7646 8.27591 4.66567 9.64184 8.16834L8.24913 1.48385C8.00808 0.561394 7.31173 0.280644 6.44128 0.253906Z" fill="white"/>
</g>
<defs>
<clipPath id="clip0_0_67">
<rect width="49" height="15" fill="white"/>
</clipPath>
</defs>
</svg>
